#!OML:ASF E:\Steps\Project 1\Capture day 1\Session 2\Subject.ASF
:FULLY-SPECIFIED
:DEGREES
223
root 6.4353 16.5285 19.0722 -147.061 -16.0535 175.746
lowerback -11.5058 -2.25236 -9.86281
upperback 3.12469 -1.46925 -2.41858
thorax 10.1008 -1.29763 2.61295
lowerneck -2.39955 -10.5306 -1.61612
upperneck 17.7567 -15.8749 3.25774
head 6.19282 -7.81989 0.26119
rclavicle 1.78906e-014 -9.54166e-015
rhumerus -43.822 5.51055 -80.8117
rradius 37.9495
rwrist -5.90673
rhand -1.34777 -51.9441
rfingers 7.12502
rthumb 24.2988 -80.424
lclavicle 1.78906e-014 -9.54166e-015
lhumerus -29.7326 -13.9816 55.093
lradius 45.8435
lwrist 7.85812
lhand -23.1115 -11.5147
lfingers 7.12502
lthumb 3.33546 18.4389
rfemur -37.9461 -3.13451 -7.1768
rtibia 26.3283
rfoot -19.5585 -19.033
rtoes -46.8003
lfemur -51.8188 -11.3932 18.5227
ltibia 51.4821
lfoot -29.9391 6.1533
ltoes -45.6001
224
root 6.54978 16.5034 19.0794 -146.489 -15.5024 175.216
lowerback -11.4492 -2.14671 -9.74453
upperback 3.05364 -1.35615 -2.36798
thorax 9.97029 -1.22892 2.6311
lowerneck -2.19104 -10.438 -1.6569
upperneck 17.4525 -15.6496 2.94931
head 6.03152 -7.74181 0.216865
rclavicle -3.45885e-014 8.98507e-014
rhumerus -43.0432 6.19026 -80.1658
rradius 38.0129
rwrist -5.47293
rhand -1.6758 -52.3598
rfingers 7.12502
rthumb 23.9843 -80.8815
lclavicle -3.45885e-014 8.98507e-014
lhumerus -30.3503 -13.2286 55.4384
lradius 44.9513
lwrist 7.70389
lhand -22.8748 -11.4531
lfingers 7.12502
lthumb 3.56405 18.4968
rfemur -39.1481 -3.61855 -7.47223
rtibia 27.197
rfoot -20.6247 -18.4096
rtoes -46.6172
lfemur -51.845 -11.2239 18.4305
ltibia 50.9861
lfoot -29.6726 7.01831
ltoes -47.1792
225
root 6.66426 16.4859 19.0829 -146.09 -15.1069 174.674
lowerback -11.1546 -2.08875 -9.59319
upperback 3.04363 -1.3391 -2.29277
thorax 9.77988 -1.20475 2.64197
lowerneck -2.05785 -10.3162 -1.63884
upperneck 17.1593 -15.3751 2.55534
head 5.87486 -7.63909 0.136432
rclavicle 1.98785e-015 3.97569e-015
rhumerus -42.2741 6.99292 -79.557
rradius 38.219
rwrist -5.22236
rhand -1.99291 -52.3961
rfingers 7.12502
rthumb 23.6802 -80.9575
lclavicle 1.98785e-015 3.97569e-015
lhumerus -30.9899 -12.4288 55.7722
lradius 44.0608
lwrist 7.48212
lhand -22.7419 -11.4875
lfingers 7.12502
lthumb 3.6923 18.4602
rfemur -40.2518 -4.31061 -7.5154
rtibia 28.399
rfoot -21.71 -17.7754
rtoes -46.1037
lfemur -51.769 -11.42 18.4406
ltibia 50.3652
lfoot -29.3358 7.6619
ltoes -47.4571
226
root 6.78005 16.471 19.0851 -145.774 -14.8279 174.179
lowerback -10.7873 -2.01692 -9.30536
upperback 3.02611 -1.32876 -2.27557
thorax 9.53255 -1.17283 2.51473
lowerneck -1.60673 -10.2235 -1.52037
upperneck 16.6434 -15.1579 2.30616
head 5.60227 -7.55775 0.108494
rclavicle 1.78906e-014 -1.04958e-013
rhumerus -41.664 7.46739 -78.9773
rradius 38.5517
rwrist -5.19247
rhand -2.39795 -52.18
rfingers 7.12502
rthumb 23.2917 -80.7911
lclavicle 1.78906e-014 -1.04958e-013
lhumerus -31.7096 -11.9179 55.9783
lradius 43.2129
lwrist 7.30533
lhand -22.5254 -11.6823
lfingers 7.12502
lthumb 3.90144 18.2617
rfemur -40.8625 -4.83115 -7.46867
rtibia 28.698
rfoot -21.8481 -18.0561
rtoes -47.0116
lfemur -51.6199 -11.7143 18.5489
ltibia 49.6567
lfoot -28.9968 8.6228
ltoes -48.4039
227
root 6.89386 16.4565 19.0873 -145.476 -14.4903 173.68
lowerback -10.3879 -1.95511 -8.98533
upperback 3.03639 -1.3356 -2.29557
thorax 9.2976 -1.14918 2.32573
lowerneck -1.39552 -10.1412 -1.49667
upperneck 16.1472 -14.9718 2.2593
head 5.40145 -7.47367 0.134581
rclavicle -4.13472e-014 -4.77083e-014
rhumerus -40.9504 7.76028 -78.4025
rradius 38.7923
rwrist -5.33948
rhand -2.65677 -52.1705
rfingers 7.12502
rthumb 23.0433 -80.8128
lclavicle -4.13472e-014 -4.77083e-014
lhumerus -32.3499 -11.3687 56.1635
lradius 42.1905
lwrist 7.03919
lhand -22.3288 -11.9739
lfingers 7.12502
lthumb 4.09123 17.9666
rfemur -41.7288 -5.51288 -7.35275
rtibia 29.424
rfoot -22.0498 -18.2958
rtoes -48.2422
lfemur -51.4491 -11.9762 18.5636
ltibia 49.021
lfoot -28.7352 9.74793
ltoes -50.3373
228
root 7.00473 16.4438 19.0904 -145.13 -14.1259 173.208
lowerback -10.0229 -1.98583 -8.66564
upperback 3.06647 -1.46097 -2.22724
thorax 9.12052 -1.18675 2.20851
lowerneck -1.60744 -9.98054 -1.72704
upperneck 15.8324 -14.6661 2.19307
head 5.3424 -7.33324 0.164587
rclavicle 1.33186e-014 4.33351e-014
rhumerus -40.0488 8.44967 -77.82
rradius 39.0131
rwrist -5.9877
rhand -3.14484 -52.1156
rfingers 7.12502
rthumb 22.575 -80.8156
lclavicle 1.33186e-014 4.33351e-014
lhumerus -33.0745 -10.5581 56.4447
lradius 41.2076
lwrist 6.85014
lhand -22.3711 -11.994
lfingers 7.12502
lthumb 4.05041 17.9472
rfemur -42.7205 -6.25616 -7.27987
rtibia 30.2938
rfoot -22.734 -17.8735
rtoes -47.7429
lfemur -51.3272 -12.1779 18.6028
ltibia 48.355
lfoot -28.4985 10.1766
ltoes -50.5783
229
root 7.11253 16.4333 19.0946 -144.733 -13.7894 172.752
lowerback -9.95572 -1.9779 -8.35195
upperback 3.13849 -1.494 -2.18998
thorax 9.15298 -1.18724 2.06832
lowerneck -1.4978 -9.8829 -1.71718
upperneck 15.3714 -14.4368 1.96737
head 5.15716 -7.2353 0.13392
rclavicle -3.67752e-014 -6.59965e-014
rhumerus -39.2534 8.73523 -77.1946
rradius 39.403
rwrist -6.36677
rhand -3.53596 -51.9749
rfingers 7.12502
rthumb 22.1995 -80.7202
lclavicle -3.67752e-014 -6.59965e-014
lhumerus -33.719 -10.167 56.7465
lradius 40.3612
lwrist 6.82787
lhand -22.4755 -11.6958
lfingers 7.12502
lthumb 3.94957 18.2473
rfemur -43.7174 -6.97833 -7.27061
rtibia 31.0703
rfoot -23.3015 -17.1441
rtoes -46.5603
lfemur -51.2359 -12.4082 18.721
ltibia 47.5931
lfoot -28.2813 10.1582
ltoes -49.1417
230
root 7.21812 16.4258 19.0973 -144.465 -13.4105 172.238
lowerback -9.92932 -1.98601 -8.13883
upperback 3.36938 -1.52516 -2.16733
thorax 9.3879 -1.20373 1.96159
lowerneck -1.3779 -9.77417 -1.70112
upperneck 14.7374 -14.1777 1.79482
head 4.92069 -7.11626 0.125755
rclavicle 2.60408e-014 -1.27222e-014
rhumerus -38.2272 8.89723 -76.5644
rradius 39.7391
rwrist -6.50633
rhand -3.57235 -51.7532
rfingers 7.12502
rthumb 22.1646 -80.5026
lclavicle 2.60408e-014 -1.27222e-014
lhumerus -34.1545 -9.63419 57.0511
lradius 39.4305
lwrist 6.7018
lhand -22.324 -11.3645
lfingers 7.12502
lthumb 4.09591 18.5759
rfemur -44.5933 -7.57394 -7.36997
rtibia 31.8825
rfoot -23.4579 -16.5232
rtoes -46.3081
lfemur -51.0106 -12.8205 18.7276
ltibia 46.8443
lfoot -28.0946 10.2015
ltoes -47.6224
231
root 7.32426 16.4204 19.0977 -144.293 -12.9515 171.764
lowerback -9.6843 -1.96038 -7.90291
upperback 3.53079 -1.54106 -2.1971
thorax 9.41308 -1.20313 1.79774
lowerneck -1.35287 -9.63232 -1.71833
upperneck 14.2646 -13.9075 1.71158
head 4.75968 -6.9872 0.136592
rclavicle 2.0276e-014 -8.74653e-015
rhumerus -37.208 9.12988 -76.0719
rradius 39.8918
rwrist -7.07823
rhand -3.74106 -51.3483
rfingers 7.12502
rthumb 22.0026 -80.1168
lclavicle 2.0276e-014 -8.74653e-015
lhumerus -34.5799 -8.99399 57.2744
lradius 38.2978
lwrist 6.39683
lhand -22.0151 -11.6605
lfingers 7.12502
lthumb 4.39418 18.2739
rfemur -45.4899 -8.03496 -7.43288
rtibia 32.8547
rfoot -23.4388 -16.1236
rtoes -47.166
lfemur -50.584 -13.1859 18.6349
ltibia 46.0136
lfoot -27.7003 10.7235
ltoes -47.2621
232
root 7.42813 16.4176 19.1001 -144.058 -12.4694 171.409
lowerback -9.43161 -1.91601 -7.46221
upperback 3.59285 -1.55907 -2.27523
thorax 9.31401 -1.18349 1.4719
lowerneck -1.41756 -9.47506 -1.69961
upperneck 13.587 -13.623 1.55966
head 5.06088 -6.86136 0.131742
rclavicle 1.85864e-014 4.23411e-014
rhumerus -36.2695 9.38367 -75.7044
rradius 40.0729
rwrist -7.90806
rhand -3.73037 -51.4289
rfingers 7.12502
rthumb 22.0129 -80.1962
lclavicle 1.85864e-014 4.23411e-014
lhumerus -35.0774 -8.38949 57.4107
lradius 37.0367
lwrist 5.89144
lhand -21.7055 -12.3339
lfingers 7.12502
lthumb 4.69312 17.5941
rfemur -46.548 -8.4184 -7.4032
rtibia 33.8146
rfoot -23.3648 -15.7122
rtoes -47.8002
lfemur -50.1606 -13.3425 18.6113
ltibia 45.1645
lfoot -27.3944 11.2573
ltoes -46.7378
233
root 7.5272 16.419 19.1032 -143.752 -11.9553 171.082
lowerback -9.31212 -1.83152 -6.99061
upperback 3.65003 -1.51053 -2.36664
thorax 9.28121 -1.13064 1.12268
lowerneck -1.46223 -9.33983 -1.57005
upperneck 13.2589 -13.3812 1.41762
head 4.91695 -6.74029 0.0886523
rclavicle 2.81777e-014 1.2275e-014
rhumerus -35.4994 9.54104 -75.3591
rradius 40.3733
rwrist -8.43863
rhand -3.39154 -51.8373
rfingers 7.12502
rthumb 22.3382 -80.5659
lclavicle 2.81777e-014 1.2275e-014
lhumerus -35.4694 -7.93627 57.6083
lradius 35.8094
lwrist 5.33297
lhand -21.2628 -12.6149
lfingers 7.12502
lthumb 5.12059 17.3032
rfemur -47.67 -8.833 -7.34456
rtibia 34.7287
rfoot -23.5207 -15.0463
rtoes -47.4783
lfemur -49.7953 -13.4525 18.6046
ltibia 44.3014
lfoot -27.1892 11.8992
ltoes -46.5824
